<svg width="1024" height="1024" viewBox="0 0 1024 1024" fill="none" xmlns="http://www.w3.org/2000/svg">
<g clip-path="url(#clip0_14_478)">
<rect width="1024" height="1024" fill="white"/>
<rect width="1024" height="1024" rx="230" fill="url(#paint0_linear_14_478)"/>
<g filter="url(#filter0_di_14_478)">
<path d="M134.207 213.309C141.307 147.417 200.448 100.041 266.302 107.493L828.264 171.084C894.118 178.536 941.748 237.993 934.648 303.886L900.298 622.679C893.198 688.572 834.057 735.947 768.204 728.495L253.936 670.302C161.741 659.869 95.0596 576.628 105 484.378L134.207 213.309Z" fill="url(#paint1_linear_14_478)"/>
</g>
<g filter="url(#filter1_di_14_478)">
<path d="M102.353 439.158C90.5564 373.942 133.775 311.048 198.885 298.679L747.991 194.369C813.101 182.001 875.446 224.842 887.242 290.058L920.056 471.464C935.686 557.875 878.421 641.21 792.15 657.599L281.359 754.63C216.249 766.999 153.904 724.157 142.108 658.942L102.353 439.158Z" fill="url(#paint2_linear_14_478)"/>
</g>
<g filter="url(#filter2_di_14_478)">
<rect x="103" y="369" width="821" height="561" rx="120" fill="url(#paint3_linear_14_478)"/>
</g>
<g filter="url(#filter3_i_14_478)">
<path d="M719.092 432.575C721.544 426.998 729.456 426.998 731.908 432.575L745.905 464.412C746.921 466.722 749.103 468.307 751.614 468.559L786.218 472.034C792.28 472.642 794.725 480.167 790.179 484.222L764.225 507.373C762.342 509.053 761.509 511.617 762.045 514.084L769.434 548.068C770.728 554.021 764.327 558.672 759.066 555.601L729.028 538.072C726.848 536.8 724.152 536.8 721.972 538.072L691.934 555.601C686.673 558.672 680.272 554.021 681.566 548.068L688.955 514.084C689.491 511.617 688.658 509.053 686.775 507.373L660.821 484.222C656.275 480.167 658.72 472.642 664.782 472.034L699.386 468.559C701.897 468.307 704.079 466.722 705.095 464.412L719.092 432.575Z" fill="white"/>
</g>
<g filter="url(#filter4_d_14_478)">
<path d="M848.985 566.274C905.513 553.989 966.484 560.961 1024 561.042V794.094C1024 921.119 921.025 1024.09 794 1024.09H230C102.975 1024.09 0 921.119 0 794.094V561.044C57.9256 561.044 119.384 553.919 176.357 566.276C268.863 586.342 296.148 686.801 376.285 727.143C421.638 749.973 473.481 756.075 523.434 754.912C567.356 753.889 611.623 746.431 651.153 726.273C730.143 685.552 757.127 586.238 848.985 566.274Z" fill="#313D6C"/>
</g>
</g>
<defs>
<filter id="filter0_di_14_478" x="99.0181" y="83.7215" width="861.331" height="652.545" filterUnits="userSpaceOnUse" color-interpolation-filters="sRGB">
<feFlood flood-opacity="0" result="BackgroundImageFix"/>
<feColorMatrix in="SourceAlpha" type="matrix" values="0 0 0 0 0 0 0 0 0 0 0 0 0 0 0 0 0 0 127 0" result="hardAlpha"/>
<feOffset dx="10" dy="-8"/>
<feGaussianBlur stdDeviation="7.5"/>
<feComposite in2="hardAlpha" operator="out"/>
<feColorMatrix type="matrix" values="0 0 0 0 0 0 0 0 0 0 0 0 0 0 0 0 0 0 0.25 0"/>
<feBlend mode="normal" in2="BackgroundImageFix" result="effect1_dropShadow_14_478"/>
<feBlend mode="normal" in="SourceGraphic" in2="effect1_dropShadow_14_478" result="shape"/>
<feColorMatrix in="SourceAlpha" type="matrix" values="0 0 0 0 0 0 0 0 0 0 0 0 0 0 0 0 0 0 127 0" result="hardAlpha"/>
<feOffset dy="-13"/>
<feGaussianBlur stdDeviation="13.25"/>
<feComposite in2="hardAlpha" operator="arithmetic" k2="-1" k3="1"/>
<feColorMatrix type="matrix" values="0 0 0 0 0.105089 0 0 0 0 0.738461 0 0 0 0 0.427984 0 0 0 1 0"/>
<feBlend mode="normal" in2="shape" result="effect2_innerShadow_14_478"/>
</filter>
<filter id="filter1_di_14_478" x="92.2128" y="157.042" width="866.613" height="608.915" filterUnits="userSpaceOnUse" color-interpolation-filters="sRGB">
<feFlood flood-opacity="0" result="BackgroundImageFix"/>
<feColorMatrix in="SourceAlpha" type="matrix" values="0 0 0 0 0 0 0 0 0 0 0 0 0 0 0 0 0 0 127 0" result="hardAlpha"/>
<feOffset dx="14" dy="-13"/>
<feGaussianBlur stdDeviation="11.1"/>
<feComposite in2="hardAlpha" operator="out"/>
<feColorMatrix type="matrix" values="0 0 0 0 0 0 0 0 0 0 0 0 0 0 0 0 0 0 0.25 0"/>
<feBlend mode="normal" in2="BackgroundImageFix" result="effect1_dropShadow_14_478"/>
<feBlend mode="normal" in="SourceGraphic" in2="effect1_dropShadow_14_478" result="shape"/>
<feColorMatrix in="SourceAlpha" type="matrix" values="0 0 0 0 0 0 0 0 0 0 0 0 0 0 0 0 0 0 127 0" result="hardAlpha"/>
<feOffset dy="4"/>
<feGaussianBlur stdDeviation="6.95"/>
<feComposite in2="hardAlpha" operator="arithmetic" k2="-1" k3="1"/>
<feColorMatrix type="matrix" values="0 0 0 0 1 0 0 0 0 0.841779 0 0 0 0 0.403846 0 0 0 1 0"/>
<feBlend mode="normal" in2="shape" result="effect2_innerShadow_14_478"/>
</filter>
<filter id="filter2_di_14_478" x="89.7" y="343.7" width="859.6" height="599.6" filterUnits="userSpaceOnUse" color-interpolation-filters="sRGB">
<feFlood flood-opacity="0" result="BackgroundImageFix"/>
<feColorMatrix in="SourceAlpha" type="matrix" values="0 0 0 0 0 0 0 0 0 0 0 0 0 0 0 0 0 0 127 0" result="hardAlpha"/>
<feOffset dx="6" dy="-6"/>
<feGaussianBlur stdDeviation="9.65"/>
<feComposite in2="hardAlpha" operator="out"/>
<feColorMatrix type="matrix" values="0 0 0 0 0 0 0 0 0 0 0 0 0 0 0 0 0 0 0.25 0"/>
<feBlend mode="normal" in2="BackgroundImageFix" result="effect1_dropShadow_14_478"/>
<feBlend mode="normal" in="SourceGraphic" in2="effect1_dropShadow_14_478" result="shape"/>
<feColorMatrix in="SourceAlpha" type="matrix" values="0 0 0 0 0 0 0 0 0 0 0 0 0 0 0 0 0 0 127 0" result="hardAlpha"/>
<feOffset dy="4"/>
<feGaussianBlur stdDeviation="9.8"/>
<feComposite in2="hardAlpha" operator="arithmetic" k2="-1" k3="1"/>
<feColorMatrix type="matrix" values="0 0 0 0 1 0 0 0 0 0.284615 0 0 0 0 0.327453 0 0 0 1 0"/>
<feBlend mode="normal" in2="shape" result="effect2_innerShadow_14_478"/>
</filter>
<filter id="filter3_i_14_478" x="658.472" y="428.392" width="134.057" height="132.183" filterUnits="userSpaceOnUse" color-interpolation-filters="sRGB">
<feFlood flood-opacity="0" result="BackgroundImageFix"/>
<feBlend mode="normal" in="SourceGraphic" in2="BackgroundImageFix" result="shape"/>
<feColorMatrix in="SourceAlpha" type="matrix" values="0 0 0 0 0 0 0 0 0 0 0 0 0 0 0 0 0 0 127 0" result="hardAlpha"/>
<feOffset dy="4"/>
<feGaussianBlur stdDeviation="3.55"/>
<feComposite in2="hardAlpha" operator="arithmetic" k2="-1" k3="1"/>
<feColorMatrix type="matrix" values="0 0 0 0 0 0 0 0 0 0 0 0 0 0 0 0 0 0 0.25 0"/>
<feBlend mode="normal" in2="shape" result="effect1_innerShadow_14_478"/>
</filter>
<filter id="filter4_d_14_478" x="-22.6" y="540.399" width="1069.2" height="510.295" filterUnits="userSpaceOnUse" color-interpolation-filters="sRGB">
<feFlood flood-opacity="0" result="BackgroundImageFix"/>
<feColorMatrix in="SourceAlpha" type="matrix" values="0 0 0 0 0 0 0 0 0 0 0 0 0 0 0 0 0 0 127 0" result="hardAlpha"/>
<feOffset dy="4"/>
<feGaussianBlur stdDeviation="11.3"/>
<feComposite in2="hardAlpha" operator="out"/>
<feColorMatrix type="matrix" values="0 0 0 0 0 0 0 0 0 0 0 0 0 0 0 0 0 0 0.25 0"/>
<feBlend mode="normal" in2="BackgroundImageFix" result="effect1_dropShadow_14_478"/>
<feBlend mode="normal" in="SourceGraphic" in2="effect1_dropShadow_14_478" result="shape"/>
</filter>
<linearGradient id="paint0_linear_14_478" x1="512" y1="0" x2="512" y2="1024" gradientUnits="userSpaceOnUse">
<stop stop-color="#283566"/>
<stop offset="1" stop-color="#000D3F"/>
</linearGradient>
<linearGradient id="paint1_linear_14_478" x1="713.433" y1="195.484" x2="439.529" y2="508.135" gradientUnits="userSpaceOnUse">
<stop stop-color="#31AD72"/>
<stop offset="1" stop-color="#1E794B"/>
</linearGradient>
<linearGradient id="paint2_linear_14_478" x1="737.678" y1="328.964" x2="456.561" y2="619.97" gradientUnits="userSpaceOnUse">
<stop stop-color="#FDCB32"/>
<stop offset="1" stop-color="#FFA600"/>
</linearGradient>
<linearGradient id="paint3_linear_14_478" x1="736.175" y1="511.446" x2="394.582" y2="860.925" gradientUnits="userSpaceOnUse">
<stop stop-color="#DF2530"/>
<stop offset="1" stop-color="#9D131B"/>
</linearGradient>
<clipPath id="clip0_14_478">
<rect width="1024" height="1024" fill="white"/>
</clipPath>
</defs>
</svg>
