<svg xmlns="http://www.w3.org/2000/svg" width="250" height="250" viewBox="0 0 250 250">
<!-- SVG created with Arrow, by QuiverAI (https://quiver.ai) -->
  <path d="m223.1 134.4v-22.82c0-14.18-11.23-26.33-25.65-26.33h-12.2l5.5-5.5c8.05-7.61 5.87-18.39-0.93-25.19l-41.25-42.57c-6.94-7.62-17.57-6.3-22.8-0.66l-41.29 42.05h-50.52c-11.64 0-20.67 10.83-20.67 22.87v138.5c0 14.03 11.09 27.99 27.02 27.99h156c14.42 0 26.32-11.94 26.32-26.36v-23.03c8.6-1.6 13.4-8.5 13.21-15.85v-27.72c0-7.96-5.13-14.17-12.71-15.42zm-40.4-70.98c2.91 2.91 1.95 5.67 0 7.18l-15.42 14.65h-60.58l48.47-49.23 27.53 27.4zm-48.12-43.63c2.13-2.13 4.51-1.31 5.77 0.41l6.08 6.54-56.72 58.51h-19.51l64.38-65.46zm-99.8 46.13h36.44l-18.34 19.33h-18.1c-6.9 0-9.23-5.36-9.23-9.34 0-5.78 4.12-9.99 9.23-9.99zm175.1 149.4c0 8.53-6.01 14.26-13.83 14.26h-155.1c-9.03 0-15.38-6.14-15.38-14.79v-120c3.05 1.7 6.35 2.26 9.23 2.26h161.8c8.53 0 13.28 7.89 13.28 14.53v22.68h-29.92c-16.76 0-29.57 14.03-29.57 30.35 0 15 12.53 28.71 28.92 28.71h30.57v22zm13.41-37.78c0 2.07-0.96 3.1-2.96 3.1h-40.23c-10.42 0-16.9-8.89-16.9-16.03 0-9.68 7.58-18 16.9-18h40.58c2.06 0 2.61 1.19 2.61 3.21v27.72z" fill="#000"/>
  <path d="m181 157.9c-4.61 0-6.57 3.24-6.57 6.4 0 4.22 3.13 5.86 5.95 5.86 4.48 0 6.26-3.45 6.26-5.86 0-3.51-2.65-6.4-5.64-6.4z" fill="#000"/>
</svg>