<svg width="1024" height="1024" viewBox="0 0 1024 1024" fill="none" xmlns="http://www.w3.org/2000/svg">
  <rect width="1024" height="1024" fill="#2F6BFF" />
  <g transform="translate(166 162) scale(30.3)" stroke="white" stroke-width="2.45" stroke-linecap="round" stroke-linejoin="round">
    <path d="M3.604 7.197l7.138 -3.109a.96 .96 0 0 1 1.27 .527l4.924 11.902a1 1 0 0 1 -.514 1.304l-7.137 3.109a.96 .96 0 0 1 -1.271 -.527l-4.924 -11.903a1 1 0 0 1 .514 -1.304l0 .001" />
    <path d="M15 4h1a1 1 0 0 1 1 1v3.5" />
    <path d="M20 6c.264 .112 .52 .217 .768 .315a1 1 0 0 1 .53 1.311l-2.298 5.374" />
  </g>
</svg>
